<?xml version="1.0" encoding="utf-8"?>
<!-- Generator: Adobe Illustrator 16.0.4, SVG Export Plug-In . SVG Version: 6.00 Build 0)  -->
<!DOCTYPE svg PUBLIC "-//W3C//DTD SVG 1.1//EN" "http://www.w3.org/Graphics/SVG/1.1/DTD/svg11.dtd">
<svg version="1.1" id="Layer_1" xmlns="http://www.w3.org/2000/svg" xmlns:xlink="http://www.w3.org/1999/xlink" x="0px" y="0px"
	 width="46.5px" height="44px" viewBox="0 0 46.5 44" enable-background="new 0 0 46.5 44" xml:space="preserve">
<ellipse fill-rule="evenodd" clip-rule="evenodd" fill="#020202" cx="23.168" cy="21.923" rx="20.494" ry="20.938"/>
<g>
	<path fill-rule="evenodd" clip-rule="evenodd" fill="#FEFEFE" d="M31.9,32.062c0.223,1.827-0.304,3.316-1.913,4.35
		c-0.496,0.318-1.062,0.394-1.59,0.593c-0.507-0.048-1.031,0.122-1.521-0.13c-0.187-0.002-0.372-0.003-0.558-0.005
		c-0.578-0.141-1.2-0.135-1.7-0.527c-0.231-0.219-0.465-0.437-0.677-0.676c-0.396-0.604-0.437-1.331-0.689-1.984
		c-0.015-0.496-0.021-0.987,0.079-1.48c0.177-0.872,0.48-1.644,1.352-2.059c0.204-0.097,0.339-0.297,0.523-0.427
		c0.645-0.441,1.38-0.634,2.131-0.771c0.451-0.023,0.903,0.005,1.354,0c0.595,0.205,1.143,0.529,1.734,0.748
		c0.185,0.154,0.364,0.313,0.502,0.513c0.174,0.506,0.681,0.745,0.951,1.176C32.001,31.604,31.897,31.834,31.9,32.062z"/>
	<path fill-rule="evenodd" clip-rule="evenodd" fill="#FEFEFE" d="M18.269,36.874c-1.154-0.121-2.038-0.684-2.684-1.638
		c-0.499-0.549-0.666-1.225-0.745-1.935c0-0.127,0-0.253,0-0.38c0.138-0.528-0.016-1.114,0.307-1.607
		c0.309-0.634,0.82-1.1,1.311-1.584c0.69-0.371,1.482-0.49,2.17-0.872c0.302-0.031,0.603-0.093,0.909-0.051
		c0.577,0.303,1.24,0.432,1.76,0.853c0.193,0.315,0.459,0.495,0.814,0.647c0.956,0.408,1.135,1.326,1.26,2.23
		c0.053,0.376,0.009,0.765,0.01,1.147c0.032,0.768-0.261,1.443-0.589,2.11c-0.22,0.188-0.458,0.354-0.661,0.561
		c-0.543,0.423-1.222,0.366-1.842,0.517c-0.162,0.044-0.325,0.087-0.487,0.131C19.29,36.956,18.762,37.126,18.269,36.874z"/>
	<path fill-rule="evenodd" clip-rule="evenodd" fill="#858585" d="M10.876,17.81c-0.138-0.208,0.081-0.317,0.13-0.474
		c0.134-0.278,0.094-0.703,0.58-0.682c0.453,0.069,0.908,0.061,1.363,0.061c6.941,0.001,13.881-0.002,20.823,0.008
		c0.541,0.001,1.087-0.142,1.625,0.029c0.161,0.238,0.401,0.421,0.483,0.712c0.096,0.909-0.139,1.162-1.137,1.093
		c-2.045-0.141-4.097-0.151-6.134-0.041c-3.137,0.169-6.271,0.087-9.406,0.093c-2.497,0.005-4.994-0.065-7.492-0.05
		c-0.333,0.002-0.723,0.062-0.969-0.288C10.631,18.073,10.793,17.953,10.876,17.81z"/>
	<path fill-rule="evenodd" clip-rule="evenodd" fill="#6F6F6F" d="M34.333,15.259c0.071,0.139,0.143,0.278,0.214,0.417
		c-0.033,0.381-0.256,0.56-0.624,0.588c-0.159,0.013-0.317,0.029-0.476,0.029c-6.723,0.012-13.444,0.012-20.167-0.003
		c-0.397-0.001-0.839,0.056-1.089-0.387c-0.303-0.42-0.037-0.725,0.208-1.034c0.446-0.15,0.697-0.602,1.148-0.749
		c0.128-0.013,0.242,0.028,0.35,0.093c0.448,0.223,0.932,0.177,1.405,0.178c4.683,0.004,9.365,0.001,14.048,0.003
		c1.291,0,2.583-0.032,3.872,0.069C33.862,14.35,34.052,14.868,34.333,15.259z"/>
	<path fill-rule="evenodd" clip-rule="evenodd" fill="#7A7A7A" d="M12.193,15.677c0.334,0.224,0.703,0.289,1.103,0.289
		c6.717-0.005,13.435-0.005,20.152,0c0.398,0,0.771-0.046,1.1-0.289c0.377,0.285,0.642,0.659,0.85,1.077
		c-0.269,0.246-0.591,0.305-0.946,0.305c-7.394-0.004-14.787-0.003-22.181-0.002c-0.301,0-0.596-0.007-0.809-0.269
		c-0.161-0.079-0.146-0.237-0.172-0.378C11.412,15.946,11.622,15.587,12.193,15.677z"/>
	<path fill-rule="evenodd" clip-rule="evenodd" fill="#8E8E8E" d="M10.76,18.151c0.321,0.153,0.665,0.134,1.006,0.134
		c4.987,0,9.975,0.071,14.96-0.032c2.297-0.047,4.594-0.073,6.891-0.104c0.25-0.003,0.504-0.014,0.75,0.021
		c0.664,0.093,1.31,0.177,1.513-0.705c0.008,0.036,0.01,0.071,0.005,0.107c0.155,0.22,0.218,0.474,0.269,0.732
		c0.014,0.067,0.032,0.132,0.051,0.197c0.259,0.865,0.136,1.035-0.789,1.069c-0.52,0.019-1.041,0.015-1.562,0.006
		c-0.461-0.007-0.9,0.065-1.316,0.267c-0.275,0.106-0.473-0.097-0.701-0.176c-0.813-0.279-1.632-0.518-2.505-0.306
		c-0.237,0.06-0.482,0.014-0.721,0.056c-0.689-0.114-1.251,0.281-1.863,0.471c-0.295,0.091-0.551,0.331-0.895,0.229
		c-0.442-0.371-0.958-0.434-1.516-0.411c-0.697,0.029-1.398,0.03-2.095,0c-0.602-0.026-1.164,0.031-1.651,0.42
		c-0.804-0.066-1.478-0.537-2.246-0.716c-0.241-0.056-0.467-0.171-0.725-0.132c-0.61-0.272-1.213,0-1.819,0.028
		c-0.348-0.003-0.697,0.185-1.041-0.016c-0.223-0.205-0.488-0.168-0.76-0.154c-0.881,0.049-1.763,0.055-2.644,0.003
		c-0.476-0.028-0.856-0.193-0.736-0.796C10.649,18.268,10.695,18.203,10.76,18.151z"/>
	<path fill-rule="evenodd" clip-rule="evenodd" fill="#FEFEFE" d="M12.193,15.677c-0.208,0.297-0.668,0.411-0.641,0.879
		c-0.549,0.541-0.543,0.538-0.915-0.185c-0.134-0.26-0.243-0.524-0.308-0.808c-0.138-0.326-0.275-0.652-0.413-0.978
		c-0.117-0.59-0.458-1.128-0.41-1.756c-0.051-0.196-0.102-0.392-0.153-0.587c-0.039-0.125-0.078-0.25-0.117-0.375
		c-0.052-0.876-0.157-1.75,0.06-2.625c0.054-0.217,0.09-0.435,0.191-0.636c0.3-0.782,0.51-1.613,1.343-2.062
		c0.226-0.122,0.317-0.062,0.437,0.093c0.265,0.441,0.229,1.006,0.583,1.411c0.182,0.246,0.059,0.589,0.268,0.826
		c0.068,0.318-0.105,0.664,0.112,0.966c0.02,0.068,0.02,0.137,0.009,0.206c-0.18,0.91,0.211,1.747,0.334,2.618
		c0.01,0.105,0.019,0.21,0.03,0.315c0.034,0.471,0.224,0.914,0.246,1.386c0.013,0.23-0.006,0.45-0.178,0.627
		C12.555,15.251,12.244,15.373,12.193,15.677z"/>
	<path fill-rule="evenodd" clip-rule="evenodd" fill="#595959" d="M15.514,12.853c0.53-0.28,1.045-0.595,1.65-0.696
		c0.151,0.148,0.349,0.151,0.535,0.14c3.438-0.204,6.881-0.027,10.321-0.098c0.485-0.01,0.973,0.253,1.455-0.004
		c0.835-0.151,1.809,0.324,2.265,1.107c0.048,0.41-0.187,0.576-0.546,0.632c-0.248,0.039-0.498,0.041-0.748,0.041
		c-4.751,0.005-9.501,0.01-14.252-0.007c-0.433-0.001-0.927,0.127-1.261-0.316c-0.179-0.395,0.001-0.6,0.374-0.703
		C15.381,12.927,15.45,12.896,15.514,12.853z"/>
	<path fill-rule="evenodd" clip-rule="evenodd" fill="#4D4D4D" d="M29.598,12.238c-0.141,0.312-0.423,0.306-0.697,0.306
		c-3.683,0.001-7.365,0.001-11.048,0c-0.298,0-0.613,0.017-0.688-0.387c0.186-0.098,0.371-0.196,0.556-0.295
		c0.994-0.229,1.945-0.646,2.986-0.663c0.144-0.045,0.288-0.091,0.432-0.136c1.238-0.155,2.48-0.123,3.723-0.086
		c0.812,0.177,1.651,0.18,2.454,0.408c0.545,0.14,1.09,0.28,1.6,0.524C29.165,11.969,29.443,11.975,29.598,12.238z"/>
	<path fill-rule="evenodd" clip-rule="evenodd" fill="#FEFEFE" d="M36.428,8.986c-0.086,2.078-0.673,3.988-1.904,5.683
		c-0.149,0.358-0.335,0.538-0.666,0.159c-0.146-0.167-0.302-0.338-0.561-0.312c-0.104-0.027-0.181-0.09-0.232-0.185
		c-0.186-0.37-0.151-0.72-0.005-1.109c0.512-1.362,0.96-2.747,1.387-4.139c0.241-0.628,0.433-1.276,0.752-1.874
		c0.102-0.192,0.173-0.377,0.44-0.26c0.056,0.133,0.111,0.265,0.168,0.398C36.28,7.792,36.22,8.44,36.428,8.986z"/>
	<path fill-rule="evenodd" clip-rule="evenodd" fill="#BEBEBE" d="M9.944,23.374c-0.01-0.87-0.02-1.74-0.03-2.61
		c0.065-0.12,0.022-0.32,0.242-0.326c0.223,0.078,0.256,0.269,0.276,0.466c0.098,0.424,0.096,0.854,0.071,1.284
		c-0.025,0.207,0.11,0.368,0.164,0.551c0.087,0.257,0.273,0.317,0.53,0.322c2.019,0.042,4.04-0.092,6.053-0.012
		c1.14,0.045,2.268-0.072,3.4-0.021c0.254,0.011,0.493,0.075,0.695,0.24c0.118,0.157,0.113,0.341,0.116,0.522
		c0.008,0.666-0.163,0.832-0.841,0.848c-2.294,0.055-4.589-0.037-6.883-0.005c-0.818,0.011-1.637,0.005-2.455,0.001
		c-0.271-0.001-0.548,0.033-0.803-0.099C10.022,24.279,10.11,23.768,9.944,23.374z"/>
	<path fill-rule="evenodd" clip-rule="evenodd" fill="#B4B4B4" d="M36.852,20.336c-0.004,0.309-0.009,0.618-0.014,0.926
		c0.144,0.729,0.04,1.444-0.127,2.155c-0.366,0.152-0.746,0.25-1.145,0.252c-1.858,0.01-3.718,0.008-5.577-0.008
		c-0.204-0.002-0.415,0-0.599-0.101c-0.36-0.199-0.481-0.469-0.203-0.83c0.739-0.379,1.525-0.647,2.293-0.961
		c1.123,0.008,2.246,0.003,3.37,0.001c1.101-0.001,1.099-0.005,1.463-1.068C36.398,20.456,36.448,20.129,36.852,20.336z"/>
	<path fill-rule="evenodd" clip-rule="evenodd" fill="#FDFDFD" d="M31.9,32.062c-0.155-0.162-0.229-0.363-0.28-0.575
		c-0.733-0.938-0.733-0.938-0.229-1.579c0.567-0.292,1.041-0.731,1.61-1.02c0.653-0.342,1.144-0.848,1.504-1.487
		c0.076-0.421,0.533-0.564,0.68-0.935c0.521-0.752,0.853-1.62,1.408-2.352c0.31,0.153,0.167,0.411,0.134,0.631
		c-0.089,0.592-0.322,1.148-0.434,1.736c-0.051,0.194-0.103,0.387-0.153,0.581c-0.408,0.39-0.527,0.945-0.809,1.407
		c-0.361,0.455-0.722,0.91-1.083,1.364c-0.41,0.63-0.952,1.128-1.548,1.575C32.434,31.627,32.167,31.844,31.9,32.062z"/>
	<path fill-rule="evenodd" clip-rule="evenodd" fill="#FDFDFD" d="M14.679,31.943c-0.207-0.179-0.414-0.356-0.621-0.534
		c-0.594-0.445-1.131-0.947-1.548-1.569c-1.312-1.541-2.13-3.309-2.436-5.311c0.375-0.095,0.471,0.214,0.582,0.441
		c0.299,0.609,0.716,1.142,1.066,1.717c0.24,0.212,0.458,0.441,0.581,0.745c0.31,0.675,0.842,1.103,1.52,1.37
		c0.45,0.42,0.963,0.755,1.479,1.087c0.549,0.736,0.612,0.469-0.011,1.458C15.099,31.56,15.228,32.101,14.679,31.943z"/>
	<path fill-rule="evenodd" clip-rule="evenodd" fill="#FDFDFD" d="M21.949,35.973c0.193-0.12,0.387-0.24,0.581-0.36
		c0.205-0.57,0.63-1.039,0.765-1.644c0.065-0.021,0.127-0.014,0.187,0.019c0.213,0.549,0.371,1.129,0.862,1.52
		c0.093,0.218,0.249,0.372,0.466,0.467c0.201,0.284,0.505,0.42,0.798,0.581c0.133,0.073,0.383,0.076,0.318,0.345
		c-0.627,0.587-1.398,0.767-2.226,0.785c-0.263,0.048-0.526,0.096-0.789,0.144c-0.357-0.255-0.808-0.229-1.197-0.393
		c-0.331-0.14-0.67-0.252-0.895-0.556C21.038,36.382,21.719,36.457,21.949,35.973z"/>
	<path fill-rule="evenodd" clip-rule="evenodd" fill="#A7A7A7" d="M36.852,20.336c-0.412,0.234-0.289,0.64-0.275,0.98
		c0.023,0.583-0.201,0.812-0.794,0.803c-1.423-0.021-2.846,0.003-4.269,0.009c-0.011-0.112-0.04-0.25,0.048-0.322
		c0.543-0.449,0.877-1.061,1.277-1.621c0.669-0.105,1.344-0.038,2.017-0.047c0.523-0.007,1.04,0.012,1.409-0.464
		c0.068-0.089,0.199-0.092,0.309-0.027C36.666,19.877,36.759,20.106,36.852,20.336z"/>
	<path fill-rule="evenodd" clip-rule="evenodd" fill="#969696" d="M36.573,19.647c-0.097,0.773-0.607,0.863-1.265,0.837
		c-0.677-0.027-1.362-0.087-2.034,0.055c-0.214,0.045-0.284-0.077-0.372-0.208c-0.402-0.063-0.622-0.242-0.431-0.68
		c-0.029-0.33,0.133-0.421,0.445-0.413c0.729,0.018,1.457,0.005,2.186,0.004c1.028-0.002,1.028-0.002,0.936-1.007
		c0.428,0.33,0.447,0.827,0.529,1.298C36.572,19.57,36.574,19.608,36.573,19.647z"/>
	<path fill-rule="evenodd" clip-rule="evenodd" fill="#4F4F4F" d="M29.73,11.871c0.185-0.138,0.368-0.275,0.552-0.413
		c0.967-0.34,1.972-0.315,2.974-0.301c0.245,0.004,0.42,0.137,0.494,0.382c-0.031,0.338-0.129,0.654-0.33,0.932
		c-0.8,0.238-1.63,0.075-2.438,0.186c-0.421-0.076-0.765-0.343-1.168-0.468C29.654,12.14,29.643,12.007,29.73,11.871z"/>
	<path fill-rule="evenodd" clip-rule="evenodd" fill="#676767" d="M33.673,11.579c-0.662-0.282-1.33-0.016-1.995-0.012
		c-0.47,0.002-0.939,0.048-1.396-0.108c0.274-0.328,0.486-0.725,0.946-0.845c0.709-0.151,1.428-0.199,2.152-0.183
		c0.226,0.005,0.454-0.013,0.598,0.213C34.039,11.007,33.933,11.317,33.673,11.579z"/>
	<path fill-rule="evenodd" clip-rule="evenodd" fill="#3C3C3C" d="M15.514,12.853c-0.01,0.04-0.017,0.081-0.021,0.122
		c-0.189,0.074-0.441,0.101-0.537,0.27c-0.347,0.611-0.919,0.579-1.486,0.583c-0.856,0.007-0.9-0.035-0.989-0.897
		c-0.016-0.522,0.281-0.708,0.756-0.709c0.491,0,0.978-0.048,1.466-0.088C15.114,12.214,15.073,12.805,15.514,12.853z"/>
	<path fill-rule="evenodd" clip-rule="evenodd" fill="#555555" d="M14.703,12.133c-0.175,0.535-0.632,0.389-1.011,0.41
		c-0.437,0.023-0.912-0.089-1.177,0.415c-0.045,0.069-0.09,0.065-0.135-0.001c-0.006-0.073-0.012-0.146-0.018-0.218
		c-0.023-0.228-0.015-0.457-0.022-0.686c-0.04-0.441,0.196-0.618,0.604-0.644c0.451-0.029,0.902-0.054,1.355-0.052
		C14.566,11.545,14.698,11.807,14.703,12.133z"/>
	<path fill-rule="evenodd" clip-rule="evenodd" fill="#929292" d="M31.794,10.104c0.295-0.402,0.54-0.868,1.132-0.893
		c0.281-0.218,0.635-0.155,0.951-0.217c0.328-0.064,0.545,0.158,0.568,0.515c-0.058,0.319-0.139,0.629-0.327,0.901
		c-0.598,0.009-1.195,0.011-1.793,0.01C32.09,10.419,31.807,10.486,31.794,10.104z"/>
	<path fill-rule="evenodd" clip-rule="evenodd" fill="#7D7D7D" d="M31.794,10.104c0.538-0.005,1.076-0.008,1.614-0.017
		c0.263-0.004,0.492,0.067,0.672,0.267c0.127,0.191-0.001,0.3-0.131,0.409c-0.671,0.002-1.342,0.005-2.013,0.006
		c-0.247,0-0.495-0.001-0.708-0.156C31.417,10.443,31.605,10.274,31.794,10.104z"/>
	<path fill-rule="evenodd" clip-rule="evenodd" fill="#717171" d="M14.299,11.356c-0.22,0.485-0.676,0.325-1.042,0.358
		c-0.344,0.031-0.673,0.028-0.84,0.402c-0.244-0.225-0.194-0.54-0.249-0.822c0.131-0.639,0.619-0.892,1.363-0.697
		c0.127,0.033,0.234,0.129,0.366,0.162C14.03,10.958,14.164,11.157,14.299,11.356z"/>
	<path fill-rule="evenodd" clip-rule="evenodd" fill="#878787" d="M13.896,10.759c-0.306,0.049-0.611,0.126-0.918,0.139
		c-0.321,0.013-0.561,0.109-0.698,0.408c-0.258-0.234-0.193-0.561-0.242-0.855c0.316-0.622,0.762-0.694,1.458-0.239
		C13.779,10.283,13.738,10.594,13.896,10.759z"/>
	<path fill-rule="evenodd" clip-rule="evenodd" fill="#AAAAAA" d="M34.359,9.535c-0.394-0.482-0.999-0.03-1.434-0.325
		c0.012-0.158,0.113-0.258,0.228-0.351c0.226-0.149,0.45-0.295,0.661-0.47c0.428-0.353,0.63-0.285,0.904,0.25
		c0.011,0.14-0.047,0.266-0.086,0.395C34.557,9.209,34.557,9.426,34.359,9.535z"/>
	<path fill-rule="evenodd" clip-rule="evenodd" fill="#B3B3B3" d="M11.922,9.831c-0.083-0.279-0.211-0.55-0.145-0.854
		c0.131-0.412,0.297-0.724,0.734-0.254c0.342,0.231,0.507,0.597,0.709,0.934C12.855,10.222,12.361,9.818,11.922,9.831z"/>
	<path fill-rule="evenodd" clip-rule="evenodd" fill="#2C2C2C" d="M11.563,26.941c-0.536-0.502-0.781-1.179-1.092-1.816
		c-0.106-0.218-0.152-0.473-0.398-0.596c0.028-0.393-0.382-0.737-0.129-1.155c0.388,0.213,0.253,0.684,0.482,0.976
		c0.155,0.057,0.208,0.236,0.358,0.299c0.26,0.249,0.212,0.667,0.498,0.902c0.027,0.409,0.511,0.593,0.506,1.019
		C11.792,26.74,11.811,26.922,11.563,26.941z"/>
	<path fill-rule="evenodd" clip-rule="evenodd" fill="#C6C6C6" d="M34.63,8.714c-0.284-0.308-0.583-0.414-0.925-0.077
		c-0.15,0.148-0.342,0.212-0.552,0.222c0.425-0.595,1.018-0.994,1.625-1.373C35.285,7.963,34.841,8.324,34.63,8.714z"/>
	<path fill-rule="evenodd" clip-rule="evenodd" fill="#9B9B9B" d="M11.922,9.831c0.376-0.484,0.858-0.174,1.299-0.174
		c0.091,0.185,0.182,0.37,0.273,0.555c-0.474-0.009-0.968-0.116-1.359,0.277c-0.228-0.134-0.14-0.369-0.179-0.564
		C11.943,9.895,11.932,9.863,11.922,9.831z"/>
	<path fill-rule="evenodd" clip-rule="evenodd" fill="#161616" d="M29.73,11.871c0.298,0.432,0.804,0.494,1.231,0.693
		c0.611-0.006,1.12,0.216,1.521,0.68c0.118,0.178,0.295,0.343,0.141,0.586c-0.704,0.377-0.782-0.346-1.109-0.631
		c-0.577-0.445-1.232-0.731-1.917-0.961c-0.225-0.084-0.449-0.168-0.673-0.253c-0.046-0.03-0.062-0.062-0.049-0.094
		c0.014-0.033,0.027-0.05,0.042-0.05C29.19,11.805,29.453,12.052,29.73,11.871z"/>
	<path fill-rule="evenodd" clip-rule="evenodd" fill="#0D0D0D" d="M24.939,11.054c-1.268,0.003-2.534,0.006-3.802,0.009
		c0.773-0.312,1.593-0.196,2.392-0.238c0.56-0.03,1.125,0.066,1.687,0.106C25.214,11.173,25.077,11.116,24.939,11.054z"/>
	<path fill-rule="evenodd" clip-rule="evenodd" fill="#2E2E2E" d="M34.63,8.714c0.111-0.401,0.439-0.777,0.148-1.228
		c0.109-0.186,0.195-0.392,0.334-0.553c0.158-0.185,0.366-0.41,0.526,0.017c-0.425,0.156-0.338,0.588-0.473,0.896
		c-0.188,0.427-0.334,0.873-0.497,1.31c-0.062-0.031-0.099-0.079-0.107-0.147C34.584,8.91,34.607,8.812,34.63,8.714z"/>
	<path fill-rule="evenodd" clip-rule="evenodd" fill="#CACACA" d="M12.511,8.723c-0.318-0.127-0.53,0.052-0.734,0.255
		c-0.071-0.286-0.088-0.588-0.254-0.846c0.153-0.19-0.27-0.529,0.168-0.645c0.177,0.175,0.354,0.35,0.532,0.525
		C12.319,8.249,12.416,8.485,12.511,8.723z"/>
	<path fill-rule="evenodd" clip-rule="evenodd" fill="#484848" d="M36.293,26.481c-0.132-0.608,0.284-1.111,0.325-1.69
		c0.016-0.211,0.166-0.419-0.04-0.613c-0.105-0.001-0.182-0.052-0.234-0.141c-0.021-0.062-0.025-0.125-0.016-0.188
		c0.024-0.059,0.06-0.111,0.106-0.153c0.189-0.087,0.249-0.365,0.51-0.348c-0.006,0.602-0.088,1.195-0.206,1.785
		C36.621,25.593,36.562,26.071,36.293,26.481z"/>
	<path fill-rule="evenodd" clip-rule="evenodd" fill="#292929" d="M20.706,11.199c-1.003,0.188-1.956,0.599-2.986,0.663
		C18.677,11.464,19.625,11.032,20.706,11.199z"/>
	<path fill-rule="evenodd" clip-rule="evenodd" fill="#BEBEBE" d="M45.304,29.207c-0.049-0.143-0.097-0.284-0.146-0.425
		c0.085-0.512,0.306-0.972,0.586-1.421C45.742,28.008,45.583,28.62,45.304,29.207z"/>
	<path fill-rule="evenodd" clip-rule="evenodd" fill="#343434" d="M36.944,23.348c-0.113,0.19-0.181,0.413-0.384,0.538
		c-0.125-0.173-0.172-0.34,0.041-0.485c0.202-0.699,0.17-1.424,0.236-2.138c0.259,0.188,0.091,0.472,0.16,0.703
		C36.979,22.426,36.962,22.887,36.944,23.348z"/>
	<path fill-rule="evenodd" clip-rule="evenodd" fill="#282828" d="M10.082,20.489c-0.056,0.092-0.112,0.184-0.167,0.275
		c-0.071-1.009,0.325-1.904,0.685-2.809c0.05-0.126,0.166-0.134,0.277-0.145c-0.039,0.113-0.078,0.227-0.116,0.341
		c-0.018,0.027-0.03,0.057-0.036,0.09c-0.201,0.343,0.083,0.701-0.03,1.047C10.423,19.654,10.584,20.241,10.082,20.489z"/>
	<path fill-rule="evenodd" clip-rule="evenodd" fill="#5B5B5B" d="M23.7,37.685c0.768-0.188,1.55-0.332,2.206-0.818
		c0.067,0.059,0.07,0.12,0.009,0.185C25.246,37.504,24.562,37.901,23.7,37.685z"/>
	<path fill-rule="evenodd" clip-rule="evenodd" fill="#1E1E1E" d="M24.939,11.054c0.092-0.041,0.185-0.082,0.276-0.123
		c0.774,0.138,1.568,0.166,2.323,0.416c0.019,0.113-0.001,0.182-0.137,0.122C26.581,11.33,25.76,11.192,24.939,11.054z"/>
	<path fill-rule="evenodd" clip-rule="evenodd" fill="#333333" d="M10.329,15.563c0.112,0.216,0.257,0.421,0.329,0.65
		c0.16,0.514,0.4,0.737,0.894,0.343c-0.03,0.077-0.061,0.154-0.091,0.23c-0.151,0.183-0.303,0.367-0.455,0.55
		C10.819,16.73,10.271,16.262,10.329,15.563z"/>
	<path fill-rule="evenodd" clip-rule="evenodd" fill="#5A5A5A" d="M20.855,36.862c0.508,0.339,1.053,0.586,1.659,0.686
		c0.178,0.028,0.366,0.043,0.396,0.28c-0.741-0.127-1.479-0.259-2.064-0.793C20.779,36.975,20.782,36.917,20.855,36.862z"/>
	<path fill-rule="evenodd" clip-rule="evenodd" fill="#505050" d="M26.877,36.874c0.501,0.108,1.026-0.064,1.521,0.13
		C27.874,37.157,27.348,37.339,26.877,36.874z"/>
	<path fill-rule="evenodd" clip-rule="evenodd" fill="#505050" d="M18.269,36.874c0.507,0.087,1.032-0.044,1.532,0.13
		C19.272,37.173,18.745,37.318,18.269,36.874z"/>
	<path fill-rule="evenodd" clip-rule="evenodd" fill="#2E2E2E" d="M32.7,31.409c0.517-0.525,1.032-1.05,1.548-1.575
		C33.958,30.581,33.416,31.081,32.7,31.409z"/>
	<path fill-rule="evenodd" clip-rule="evenodd" fill="#2F2F2F" d="M12.51,29.84c0.516,0.523,1.032,1.046,1.548,1.569
		C13.339,31.087,12.81,30.577,12.51,29.84z"/>
	<path fill-rule="evenodd" clip-rule="evenodd" fill="#353535" d="M14.84,33.302c0.236,0.649,0.36,1.342,0.745,1.935
		C14.921,34.751,14.779,34.065,14.84,33.302z"/>
	<path fill-rule="evenodd" clip-rule="evenodd" fill="#323232" d="M36.567,19.532c-0.176-0.432-0.353-0.865-0.529-1.297
		c-0.051-0.221-0.103-0.441-0.153-0.662C36.311,18.157,36.664,18.766,36.567,19.532z"/>
	<path fill-rule="evenodd" clip-rule="evenodd" fill="#3A3A3A" d="M14.679,31.943c0.444-0.019,0.314-0.51,0.565-0.687
		c0.062,0.027,0.1,0.074,0.112,0.141c-0.277,0.473-0.312,1.027-0.517,1.524C14.602,32.626,15.021,32.222,14.679,31.943z"/>
	<path fill-rule="evenodd" clip-rule="evenodd" fill="#333333" d="M20.855,36.862c-0.003,0.058-0.006,0.115-0.009,0.173
		c-0.169-0.114-0.354-0.171-0.559-0.162c0.554-0.3,1.107-0.6,1.661-0.9C21.825,36.565,21.18,36.517,20.855,36.862z"/>
	<path fill-rule="evenodd" clip-rule="evenodd" fill="#333333" d="M25.915,37.051c-0.003-0.062-0.006-0.123-0.009-0.185
		c-0.324-0.349-0.967-0.306-1.097-0.893c0.503,0.298,1.006,0.597,1.51,0.896C26.185,36.93,26.05,36.99,25.915,37.051z"/>
	<path fill-rule="evenodd" clip-rule="evenodd" fill="#303030" d="M33.396,14.414c0.218-0.038,0.332,0.135,0.422,0.264
		c0.256,0.361,0.474,0.256,0.705-0.008c0.06,0.236-0.171,0.379-0.19,0.59c-0.427-0.05-0.582-0.482-0.921-0.655
		C33.355,14.544,33.351,14.481,33.396,14.414z"/>
	<path fill-rule="evenodd" clip-rule="evenodd" fill="#373737" d="M36.428,8.986c-0.351-0.492-0.291-1.139-0.621-1.638
		C36.441,7.731,36.36,8.387,36.428,8.986z"/>
	<path fill-rule="evenodd" clip-rule="evenodd" fill="#2C2C2C" d="M27.402,11.468c0.045-0.041,0.091-0.081,0.137-0.122
		c0.48,0.106,0.955,0.229,1.379,0.495c0.002,0.048,0.004,0.096,0.007,0.144C28.417,11.813,27.909,11.641,27.402,11.468z"/>
	<path fill-rule="evenodd" clip-rule="evenodd" fill="#343434" d="M9.506,12.829c0.1,0.594,0.426,1.135,0.41,1.756
		C9.605,14.041,9.363,13.48,9.506,12.829z"/>
	<path fill-rule="evenodd" clip-rule="evenodd" fill="#383838" d="M35.331,28.47c0.146-0.54,0.25-1.104,0.809-1.407
		C35.862,27.527,35.731,28.076,35.331,28.47z"/>
	<path fill-rule="evenodd" clip-rule="evenodd" fill="#353535" d="M9.488,8.606c-0.177,1.031-0.413,2.06-0.143,3.113
		c0.01,0.038-0.07,0.098-0.108,0.147c-0.268-0.982-0.141-1.963,0.023-2.94C9.28,8.81,9.409,8.712,9.488,8.606z"/>
	<path fill-rule="evenodd" clip-rule="evenodd" fill="#3C3C3C" d="M11.691,7.487c-0.162,0.188,0.088,0.482-0.168,0.645
		c-0.113-0.494-0.259-0.981-0.256-1.495C11.563,6.843,11.704,7.127,11.691,7.487z"/>
	<path fill-rule="evenodd" clip-rule="evenodd" fill="#010101" d="M23.435,34.049l-0.055-0.004l-0.056,0.005
		c-0.099-0.109-0.095-0.228-0.029-0.351c0.184-0.984-0.392-1.763-0.729-2.6c-0.136-0.339-0.414-0.552-0.859-0.504
		c-0.625,0.067-0.821-0.247-0.585-0.828c-0.045-0.049-0.066-0.107-0.063-0.174c0.033-0.162,0.077-0.318,0.229-0.416
		c0.063-0.023,0.126-0.047,0.189-0.071c0.128-0.054,0.256-0.104,0.382-0.162c1.006-0.346,1.991-0.317,2.956,0.147
		c0.149,0.082,0.307,0.15,0.44,0.26c0.086,0.102,0.118,0.227,0.153,0.35c0.004,0.064-0.016,0.12-0.06,0.168
		c-0.146,0.374-0.171,0.856-0.798,0.746c-0.187-0.032-0.28,0.203-0.376,0.347c-0.549,0.828-0.799,1.736-0.709,2.732
		C23.528,33.818,23.534,33.938,23.435,34.049z"/>
	<path fill-rule="evenodd" clip-rule="evenodd" fill="#F1F1F1" d="M25.36,29.748c-0.122,0.02-0.239,0.025-0.306-0.111
		c-0.315-0.993-0.122-2.016-0.169-3.025c-0.02-0.428-0.003-0.858-0.003-1.287c0.03-0.335-0.078-0.688,0.126-1.001
		c0.066-0.062,0.145-0.083,0.233-0.062c0.219,0.117,0.235,0.332,0.262,0.542c0.062,0.242,0.011,0.487,0.016,0.73
		c0.021,0.318,0.019,0.636,0.002,0.954c0.021,0.349,0.031,0.698,0.011,1.046c0.018,0.543,0.357,0.775,0.841,0.782
		c2.062,0.03,4.126,0.032,6.188,0c0.482-0.007,0.843-0.301,1.21-0.566c0.238-0.176,0.396-0.619,0.8-0.243
		c-0.301,0.708-0.89,1.146-1.486,1.576c-0.364,0.51-0.959,0.717-1.428,1.089c-0.306,0.129-0.534,0.482-0.939,0.318
		c-0.122-0.199-0.283-0.358-0.485-0.475c-0.387-0.436-0.999-0.46-1.441-0.794c-0.527,0.006-1.054,0.012-1.58,0.018
		C26.528,29.171,25.965,29.533,25.36,29.748z"/>
	<path fill-rule="evenodd" clip-rule="evenodd" fill="#333333" d="M30.718,30.489c0.313-0.106,0.626-0.213,0.939-0.318
		c-0.809,0.416-0.167,0.873-0.037,1.315C31.167,31.292,31.082,30.765,30.718,30.489z"/>
	<path fill-rule="evenodd" clip-rule="evenodd" fill="#3F3F3F" d="M25.36,29.748c0.547-0.424,1.137-0.691,1.851-0.51
		c-0.635,0.168-1.272,0.328-1.861,0.631C25.34,29.828,25.344,29.787,25.36,29.748z"/>
	<path fill-rule="evenodd" clip-rule="evenodd" fill="#303030" d="M23.435,34.049c0.011-0.118,0.021-0.236,0.032-0.354
		c0.213,0.643,0.493,1.253,0.877,1.812C23.71,35.227,23.585,34.63,23.435,34.049z"/>
	<path fill-rule="evenodd" clip-rule="evenodd" fill="#434343" d="M28.791,29.221c0.54,0.156,1.126,0.229,1.441,0.794
		C29.77,29.717,29.152,29.702,28.791,29.221z"/>
	<path fill-rule="evenodd" clip-rule="evenodd" fill="#EEEEEE" d="M21.422,29.393c-0.07,0.113-0.16,0.188-0.305,0.162
		c-0.526-0.146-1.058-0.271-1.574-0.451c-0.278,0.039-0.557,0.077-0.836,0.115c-0.769,0.045-1.483,0.244-2.098,0.733
		c-0.076,0.051-0.003-0.044-0.061,0.023c-0.465,0.543-0.983,0.633-1.571,0.201c-0.436-0.364-0.871-0.729-1.307-1.094
		c-0.589-0.436-1.189-0.863-1.476-1.583c0.251-0.261,0.459-0.135,0.66,0.07c0.279,0.402,0.713,0.469,1.143,0.475
		c2.011,0.027,4.021,0.026,6.032-0.001c0.361-0.005,0.808,0.025,0.889-0.514c0.013-0.306,0.038-0.61,0.047-0.917
		c-0.028-0.36-0.021-0.72,0.034-1.078c0.003-0.169,0.047-0.33,0.092-0.491c0.093-0.146,0.17-0.331,0.391-0.155
		c0.242,0.569,0.093,1.166,0.115,1.748c0.026,0.68,0.007,1.362,0.006,2.043C21.603,28.935,21.59,29.184,21.422,29.393z"/>
	<path fill-rule="evenodd" clip-rule="evenodd" fill="#2E2E2E" d="M14.978,30.177c0.633,0.297,1.164,0.13,1.624-0.358
		c0.063,0.062,0.066,0.126,0.011,0.193c-0.503,0.386-0.939,0.831-1.256,1.386c-0.037-0.047-0.075-0.094-0.112-0.141
		C15.732,30.754,15.5,30.43,14.978,30.177z"/>
	<path fill-rule="evenodd" clip-rule="evenodd" fill="#424242" d="M16.612,30.012c-0.004-0.064-0.007-0.128-0.011-0.193
		c0.651-0.377,1.288-0.805,2.105-0.6C17.989,29.433,17.246,29.578,16.612,30.012z"/>
	<path fill-rule="evenodd" clip-rule="evenodd" fill="#424242" d="M19.543,29.104c0.56,0.027,1.093,0.149,1.574,0.451
		c0.001,0.07,0.003,0.143,0.005,0.213c-0.363-0.221-0.764-0.338-1.178-0.412C19.773,29.326,19.574,29.35,19.543,29.104z"/>
	<path fill-rule="evenodd" clip-rule="evenodd" fill="#333333" d="M23.295,33.699c0.01,0.117,0.02,0.233,0.029,0.351
		c-0.073,0.618-0.423,1.097-0.794,1.562C22.623,34.91,23.153,34.382,23.295,33.699z"/>
	<path fill-rule="evenodd" clip-rule="evenodd" fill="#646464" d="M33.396,14.414c0.005,0.063,0.011,0.126,0.016,0.19
		c-0.278,0.119-0.572,0.129-0.869,0.129c-6.085-0.001-12.169,0.002-18.254-0.011c-0.249,0-0.816,0.229-0.551-0.456
		c-0.068-0.167-0.041-0.374,0.108-0.408c0.413-0.094,0.675-0.517,1.131-0.491c0.243,0.256,0.557,0.274,0.882,0.274
		c4.979-0.002,9.957,0.001,14.937-0.01c0.29-0.001,0.755,0.168,0.719-0.431c0.365,0.207,0.73,0.413,1.096,0.619
		c0.479-0.146,0.379,0.478,0.707,0.531C33.363,14.349,33.39,14.37,33.396,14.414z"/>
	<path fill-rule="evenodd" clip-rule="evenodd" fill="#212121" d="M14.978,13.366c-0.455,0.242-0.882,0.523-1.24,0.899
		c-0.065,0.02-0.13,0.041-0.195,0.061c-0.134,0.03-0.249,0.1-0.339,0.199c-0.304,0.333-0.426,0.043-0.574-0.162
		c-0.142-0.458-0.298-0.915-0.25-1.407c0.045,0,0.09,0,0.135,0.001c0.251,0.577,1.33,0.813,2,0.433
		c0.312-0.177,0.584-0.438,0.979-0.416C15.321,13.105,15.149,13.235,14.978,13.366z"/>
	<path fill-rule="evenodd" clip-rule="evenodd" fill="#080808" d="M12.63,14.363c0.023-0.06,0.047-0.12,0.07-0.179
		c0.212,0.451,0.543,0.203,0.843,0.143c-0.28,0.235-0.461,0.6-0.871,0.667C12.658,14.783,12.644,14.573,12.63,14.363z"/>
	<path fill-rule="evenodd" clip-rule="evenodd" fill="#FEFEFE" d="M17.696,18.945c0.996,0.217,1.979,0.47,2.871,0.989
		c0.52-0.01,0.879,0.208,1.032,0.722c0.063,0.129,0.126,0.259,0.132,0.407c0.04,0.339-0.048,0.655-0.176,0.964
		c-0.109,0.161-0.243,0.298-0.388,0.427c-0.645,0.747-1.558,0.565-2.381,0.671c-0.417,0.053-0.846-0.012-1.265-0.082
		c-0.275-0.141-0.257-0.363-0.114-0.569c0.72-1.037,0.614-2.085,0.071-3.148c-0.031-0.06-0.021-0.133-0.015-0.201
		C17.502,19.015,17.567,18.939,17.696,18.945z"/>
	<path fill-rule="evenodd" clip-rule="evenodd" fill="#FEFEFE" d="M32.472,19.65c0.144,0.227,0.287,0.453,0.43,0.68
		c-0.026,0.936-0.708,1.366-1.388,1.798c-0.713,0.267-1.402,0.614-2.184,0.655c-0.064-0.033-0.113-0.083-0.145-0.147
		c-0.067-0.164,0-0.31,0.063-0.456c0.376-0.855,0.388-1.714,0.009-2.57c-0.077-0.174-0.109-0.342-0.057-0.525
		C30.381,18.758,31.453,19.048,32.472,19.65z"/>
	<path fill-rule="evenodd" clip-rule="evenodd" fill="#FEFEFE" d="M25.905,19.922c0.862-0.423,1.72-0.864,2.721-0.837
		c0.078,0.229,0.028,0.443-0.058,0.66c-0.374,0.944-0.358,1.858,0.225,2.724c0.093,0.137,0.147,0.28,0.089,0.448
		c-0.141,0.301-0.416,0.328-0.688,0.308c-1.146-0.087-2.308-0.133-3.153-1.089c-0.093-0.076-0.143-0.179-0.185-0.288
		c-0.054-0.142-0.163-0.257-0.2-0.408c-0.031-0.276,0.109-0.505,0.205-0.748C25.031,20.193,25.328,19.868,25.905,19.922z"/>
	<path fill-rule="evenodd" clip-rule="evenodd" fill="#FEFEFE" d="M14.854,19.149c0.318-0.068,0.637-0.135,0.955-0.203
		c0.424-0.053,0.848-0.117,1.265,0.042c0.146,0.199,0.055,0.388-0.037,0.567c-0.414,0.809-0.422,1.638-0.141,2.485
		c0.078,0.237,0.154,0.476-0.038,0.701c-0.086,0.086-0.191,0.129-0.312,0.134c-0.646-0.117-1.228-0.449-1.876-0.56
		c-0.385-0.436-0.993-0.641-1.247-1.212c-0.088-0.492-0.207-0.991,0.248-1.386C13.964,19.319,14.254,18.912,14.854,19.149z"/>
	<path fill-rule="evenodd" clip-rule="evenodd" fill="#999999" d="M25.905,19.922c-0.273,0.274-0.547,0.547-0.82,0.821
		c-0.939,0.388-1.917,0.175-2.877,0.15c-0.256-0.007-0.557-0.017-0.811-0.149c-0.276-0.27-0.554-0.54-0.83-0.81
		c-0.083-0.312-0.18-0.576,0.353-0.565c1.545,0.03,3.092,0.027,4.638,0.001C26.063,19.362,26.041,19.581,25.905,19.922z"/>
	<path fill-rule="evenodd" clip-rule="evenodd" fill="#010101" d="M28.764,22.819c-0.474-0.233-0.604-0.689-0.697-1.142
		c-0.191-0.938-0.168-1.845,0.56-2.592c0.192-0.072,0.384-0.065,0.575,0.001c0.883,0.87,0.938,2.438,0.125,3.576
		C29.182,22.866,29.023,23.023,28.764,22.819z"/>
	<path fill-rule="evenodd" clip-rule="evenodd" fill="#8F8F8F" d="M14.854,19.149c-0.326,0.211-0.653,0.422-0.979,0.633
		c-1.036,0.281-2.074,0.144-3.11,0.013c-0.407-0.051-0.374-0.388-0.405-0.676c0.096-0.303,0.164-0.619,0.365-0.878
		c0.057,0.466,0.379,0.585,0.78,0.584c0.774-0.003,1.548-0.03,2.321-0.019C14.194,18.812,14.623,18.703,14.854,19.149z"/>
	<path fill-rule="evenodd" clip-rule="evenodd" fill="#8F8F8F" d="M17.018,19.094c-0.373-0.295-0.809-0.078-1.209-0.148
		c0.629-0.177,1.259-0.177,1.888,0c-0.039,0.051-0.079,0.102-0.118,0.152C17.39,19.326,17.203,19.321,17.018,19.094z"/>
	<path fill-rule="evenodd" clip-rule="evenodd" fill="#363636" d="M11.956,9.925c0.06,0.188,0.119,0.376,0.179,0.564
		c0.048,0.272,0.096,0.544,0.144,0.816c0.046,0.271,0.091,0.541,0.137,0.811c0.051,0.213,0.034,0.42-0.054,0.622
		C12.135,11.813,11.837,10.899,11.956,9.925z"/>
	<path fill-rule="evenodd" clip-rule="evenodd" fill="#1F1F1F" d="M33.317,14.35c-0.333-0.047-0.441-0.394-0.707-0.531
		c-0.094-0.15-0.187-0.301-0.28-0.451c0.076-0.637,0.704-0.67,1.076-0.983c0.089-0.269,0.178-0.538,0.267-0.806
		c0.093-0.272,0.185-0.544,0.276-0.816c0.044-0.137,0.088-0.273,0.131-0.409c0.094-0.273,0.187-0.546,0.279-0.819
		c0.067-0.175,0.135-0.351,0.202-0.526c0.035,0.049,0.071,0.098,0.107,0.147c-0.468,1.439-0.923,2.882-1.412,4.313
		C33.145,13.795,33.138,14.067,33.317,14.35z"/>
	<path fill-rule="evenodd" clip-rule="evenodd" fill="#C8C8C8" d="M21.368,24.875c-0.037,0.081-0.074,0.161-0.111,0.242
		c-0.437,0.362-0.949,0.185-1.432,0.196c-2.773,0.064-5.548-0.01-8.321,0.036c-0.516,0.008-0.712-0.255-0.931-0.595
		c-0.049-0.135-0.098-0.269-0.147-0.404c3.405-0.123,6.811-0.029,10.216-0.03c0.858,0,0.549-0.57,0.615-0.981
		c-0.322-0.318-0.388-0.641-0.015-0.97c0.096-0.009,0.22,0.01,0.234,0.093C21.618,23.272,21.801,24.089,21.368,24.875z"/>
	<path fill-rule="evenodd" clip-rule="evenodd" fill="#B3B3B3" d="M21.267,22.392c-0.003,0.315-0.006,0.631-0.009,0.946
		c-3.374,0.001-6.747,0.001-10.121,0.003c-0.422,0-0.845,0.013-0.936-0.547c0.324-0.396,0.793-0.334,1.205-0.315
		c1.142,0.053,2.281,0.107,3.417-0.058c0.577-0.084,1.094,0.229,1.655,0.238c0.084-0.003,0.168-0.005,0.252-0.008
		c0.32-0.125,0.556-0.04,0.697,0.279c1.273,0.007,2.551,0.04,3.685-0.694C21.255,22.198,21.293,22.263,21.267,22.392z"/>
	<path fill-rule="evenodd" clip-rule="evenodd" fill="#A9A9A9" d="M13.763,21c0.33,0.355,0.619,0.756,1.068,0.981
		c-0.055,0.478-0.428,0.497-0.778,0.521c-1.088,0.077-2.18-0.049-3.27,0.02c-0.236,0.015-0.432-0.097-0.584-0.278
		c-0.001-0.455-0.002-0.91-0.003-1.365c0.2-0.26,0.484-0.312,0.787-0.323c0.566-0.02,1.134,0.012,1.699-0.014
		C13.131,20.522,13.448,20.74,13.763,21z"/>
	<path fill-rule="evenodd" clip-rule="evenodd" fill="#9B9B9B" d="M13.763,21c-1.183-0.214-2.378-0.08-3.567-0.12
		c-0.038-0.13-0.076-0.26-0.114-0.391c-0.01-0.477,0.154-0.919,0.278-1.37c0.151,0.297,0.397,0.408,0.724,0.396
		c0.651-0.024,1.296,0.187,1.957,0.024c0.295-0.073,0.568,0.115,0.833,0.242C13.654,20.171,13.541,20.57,13.763,21z"/>
	<path fill-rule="evenodd" clip-rule="evenodd" fill="#B3B3B3" d="M10.199,22.244c1.107,0.001,2.214,0.001,3.32,0.003
		c0.456,0.001,0.903-0.042,1.312-0.267c0.549,0.226,1.099,0.452,1.647,0.677c-1.596,0.012-3.185,0.257-4.786,0.125
		c-0.494-0.041-0.994,0.005-1.491,0.011C10.201,22.61,10.2,22.427,10.199,22.244z"/>
	<path fill-rule="evenodd" clip-rule="evenodd" fill="#BCBCBC" d="M28.764,22.819c0.188-0.052,0.375-0.104,0.562-0.157
		c0.005,0.041,0.007,0.081,0.004,0.122c-0.149,0.505,0.222,0.551,0.538,0.541c2.154-0.066,4.312,0.144,6.465-0.083
		c0.135-0.014,0.213,0.049,0.269,0.159c-0.014,0.162-0.027,0.324-0.041,0.485c-0.038,0.003-0.075,0.012-0.11,0.026
		c-0.236,0.38-0.628,0.429-1.012,0.433c-3.147,0.031-6.294,0.026-9.44,0.005c-0.276-0.002-0.538-0.064-0.774-0.214
		c-0.408-0.572-0.11-1.253-0.287-1.86c0.009-0.136,0.057-0.249,0.186-0.313C26.217,22.753,27.447,22.971,28.764,22.819z"/>
	<path fill-rule="evenodd" clip-rule="evenodd" fill="#DCDCDC" d="M34.518,27.58c-0.26-0.065-0.36,0.191-0.548,0.271
		c-2.605,0.135-5.214,0.042-7.82,0.054c-0.341,0.001-0.689-0.011-0.918-0.334c0.001-0.364,0.002-0.728,0.003-1.092
		c0.18-0.241,0.437-0.313,0.719-0.315c3.039-0.021,6.077-0.05,9.115,0.015c0.071,0.001,0.132,0.033,0.194,0.057
		c0.132,0.084,0.158,0.198,0.091,0.335c-0.188,0.335-0.376,0.671-0.564,1.006C34.699,27.654,34.608,27.662,34.518,27.58z"/>
	<path fill-rule="evenodd" clip-rule="evenodd" fill="#2B2B2B" d="M35.354,26.571c0.023-0.072,0.047-0.144,0.07-0.216
		c-0.271-0.417,0.219-0.715,0.17-1.099c0.377-0.24,0.214-0.755,0.523-1.03c0.119-0.06,0.225-0.143,0.348-0.196
		c0.038,0.049,0.075,0.098,0.113,0.147C36.318,25.052,36.13,25.962,35.354,26.571z"/>
	<path fill-rule="evenodd" clip-rule="evenodd" fill="#262626" d="M34.518,27.58c0.091,0,0.182-0.001,0.271-0.002
		c-0.527,0.548-0.906,1.263-1.704,1.504C33.548,28.568,34.12,28.157,34.518,27.58z"/>
	<path fill-rule="evenodd" clip-rule="evenodd" fill="#DDDDDD" d="M21.252,26.615c0.001,0.319,0.001,0.637,0.002,0.956
		c-0.21,0.3-0.53,0.329-0.852,0.332c-2.298,0.02-4.595,0.025-6.892-0.003c-0.293-0.004-0.592-0.033-0.857-0.187
		c-0.13-0.066-0.237-0.2-0.411-0.135c-0.077,0.056-0.125,0.037-0.143-0.056c-0.293-0.087-0.344-0.399-0.537-0.58
		c-0.005-0.101-0.01-0.201-0.016-0.301c0.022-0.38,0.333-0.329,0.556-0.333c2.81-0.042,5.62-0.038,8.43-0.007
		C20.816,26.304,21.071,26.376,21.252,26.615z"/>
	<path fill-rule="evenodd" clip-rule="evenodd" fill="#262626" d="M12.1,27.521c0.047,0.019,0.095,0.037,0.143,0.056
		c0.395,0.579,0.972,0.985,1.428,1.506C12.92,28.79,12.414,28.252,12.1,27.521z"/>
	<path fill-rule="evenodd" clip-rule="evenodd" fill="#373737" d="M33.406,12.385c-0.048,0.668-0.573,0.813-1.076,0.983
		c-0.495-0.202-0.946-0.477-1.368-0.804C31.747,12.097,32.577,12.25,33.406,12.385z"/>
	<path fill-rule="evenodd" clip-rule="evenodd" fill="#D2D2D2" d="M21.252,26.615c-3.146-0.005-6.292-0.011-9.438-0.015
		c-0.088,0-0.177,0.026-0.266,0.04c-0.251-0.275-0.429-0.593-0.556-0.942c0.025-0.442,0.387-0.311,0.617-0.328
		c1.146-0.088,2.296-0.014,3.444-0.022c1.852-0.013,3.704-0.032,5.556-0.011c0.241,0.002,0.471-0.006,0.648,0.189
		C21.255,25.889,21.254,26.252,21.252,26.615z"/>
	<path fill-rule="evenodd" clip-rule="evenodd" fill="#CBCBCB" d="M21.257,25.525c-2.091,0.001-4.184-0.059-6.271,0.023
		c-1.331,0.053-2.675-0.187-3.995,0.149c-0.208-0.285-0.341-0.603-0.418-0.945c0.363,0.291,0.77,0.375,1.238,0.373
		c3.149-0.017,6.297-0.009,9.446-0.009C21.257,25.253,21.257,25.389,21.257,25.525z"/>
	<path fill-rule="evenodd" clip-rule="evenodd" fill="#C3C3C3" d="M36.465,24.031c-0.049,0.09-0.098,0.181-0.147,0.271
		c-0.192,0.707-0.692,0.861-1.365,0.842c-1.9-0.056-3.802,0.009-5.704-0.045c-0.882-0.025-1.767,0.091-2.652,0.082
		c-0.484-0.005-0.952-0.06-1.367-0.338c-0.004-0.179-0.007-0.357-0.011-0.535c-0.076-0.1-0.067-0.195,0.016-0.287
		c3.403,0.001,6.807,0.006,10.21-0.001c0.336,0,0.671-0.07,1.007-0.107C36.453,23.952,36.458,23.992,36.465,24.031z"/>
	<path fill-rule="evenodd" clip-rule="evenodd" fill="#535353" d="M24.956,21.421c0.035,0.098,0.069,0.195,0.104,0.293
		c0.065,1.177-0.021,2.354,0.011,3.531c-0.006,1.464-0.012,2.928-0.017,4.391c-0.082-0.096-0.164-0.191-0.246-0.287
		c-0.196-0.277-0.2-0.593-0.2-0.915c0.003-1.226,0.001-2.452,0.001-3.678c0-0.892,0-1.784,0.001-2.676
		c0-0.083,0.001-0.167,0.002-0.251C24.626,21.609,24.665,21.409,24.956,21.421z"/>
	<path fill-rule="evenodd" clip-rule="evenodd" fill="#F9F9F9" d="M24.791,24.714c0.006,1.545,0.012,3.09,0.018,4.636
		c-0.982-0.477-1.979-0.603-3-0.122c-0.306-0.014-0.267-0.254-0.267-0.439c-0.001-0.51-0.044-1.021,0.028-1.528
		c0.06-0.116,0.149-0.152,0.271-0.102c0.038,0.024,0.09,0.052,0.096,0.091c0.127,0.833,0.566,1.166,1.443,1.115
		c0.915-0.052,0.967-0.026,1.006-1.07c-0.067-0.457-0.029-0.913-0.008-1.369c0.021-0.402-0.131-0.83,0.181-1.187
		C24.631,24.681,24.708,24.672,24.791,24.714z"/>
	<path fill-rule="evenodd" clip-rule="evenodd" fill="#272727" d="M21.696,27.175c0.048,0.684-0.218,1.385,0.112,2.053
		c-0.094,0.041-0.188,0.081-0.28,0.122c-0.141-0.853-0.039-1.711-0.059-2.567c-0.036-1.602,0.055-3.205-0.062-4.805
		c-0.017-0.322,0.235-0.615,0.098-0.95c0.104-0.265,0.223-0.129,0.293,0.008c0.126,0.244,0.068,0.522,0.103,0.785
		c0.035,0.374,0.195,0.738,0.077,1.122c-0.102,0.457,0.146,0.915-0.007,1.371c-0.119,0.466,0.143,0.924,0.029,1.391
		c-0.121,0.278-0.005,0.562-0.021,0.842C21.963,26.795,21.923,27.025,21.696,27.175z"/>
	<path fill-rule="evenodd" clip-rule="evenodd" fill="#BEBEBE" d="M21.407,21.977c0.183,0.985,0.075,1.979,0.089,2.97
		c0.021,1.467,0.022,2.936,0.032,4.403c-0.034,0.02-0.069,0.033-0.106,0.043c-0.018-1.506-0.035-3.012-0.053-4.518
		c-0.007-0.829,0.146-1.664-0.103-2.483c-0.051-0.052-0.103-0.104-0.154-0.156C21.211,22.149,21.309,22.063,21.407,21.977z"/>
	<path fill-rule="evenodd" clip-rule="evenodd" fill="#D1D1D1" d="M35.904,25.427c-0.095,0.344-0.287,0.636-0.48,0.928
		c-0.213,0.073-0.418,0.155-0.656,0.154c-3.178-0.015-6.355-0.021-9.533-0.03c-0.001-0.318-0.002-0.636-0.003-0.954
		c0.316-0.404,0.773-0.328,1.194-0.33c2.653-0.015,5.308-0.004,7.962-0.008c0.386,0,0.771-0.002,1.156-0.023
		C35.716,25.155,35.934,25.137,35.904,25.427z"/>
	<path fill-rule="evenodd" clip-rule="evenodd" fill="#E8E8E8" d="M25.231,27.571c2.601,0.002,5.202,0.003,7.803,0.008
		c0.336,0,0.69-0.046,0.936,0.272c-0.399,0.61-0.9,0.875-1.689,0.845c-1.988-0.076-3.98-0.024-5.972-0.026
		C25.223,28.669,25.223,28.667,25.231,27.571z"/>
	<path fill-rule="evenodd" clip-rule="evenodd" fill="#CACACA" d="M35.904,25.427c-0.472,0.034-0.944,0.095-1.416,0.096
		c-3.086,0.008-6.172,0.003-9.257,0.003c-0.001-0.228-0.002-0.456-0.003-0.684c0.354-0.192,0.713-0.007,1.068-0.013
		c1.604-0.024,3.207-0.083,4.811-0.096c1.354-0.011,2.711-0.025,4.06,0.067c0.537,0.037,0.865-0.104,1.15-0.5
		C36.283,24.714,36.127,25.083,35.904,25.427z"/>
	<path fill-rule="evenodd" clip-rule="evenodd" fill="#2E2E2E" d="M25.071,25.246c-0.204-1.176-0.187-2.354-0.011-3.531
		c0.021,0.083,0.041,0.165,0.062,0.248c-0.004,0.099-0.008,0.197-0.012,0.296c0.074,0.681,0.074,1.362-0.001,2.043
		C25.097,24.617,25.084,24.931,25.071,25.246z"/>
	<path fill-rule="evenodd" clip-rule="evenodd" fill="#D1D1D1" d="M25.109,24.302c0-0.681,0.001-1.362,0.001-2.043
		c0.216,0.575,0.067,1.176,0.123,1.762c-0.005,0.095-0.011,0.19-0.016,0.286C25.182,24.304,25.146,24.303,25.109,24.302z"/>
	<path fill-rule="evenodd" clip-rule="evenodd" fill="#E6E6E6" d="M12.653,27.712c0.395-0.115,0.798-0.138,1.208-0.138
		c2.464,0.002,4.929-0.001,7.393-0.003c0.084,0.621-0.185,0.84-0.807,0.835c-2.265-0.019-4.529-0.004-6.794,0.015
		C13.126,28.426,12.927,28.032,12.653,27.712z"/>
	<path fill-rule="evenodd" clip-rule="evenodd" fill="#010101" d="M17.428,22.93c-0.27,0-0.51-0.073-0.697-0.279
		c-0.168-0.651-0.477-1.272-0.383-1.978c0.079-0.59,0.149-1.178,0.67-1.579c0.187,0.001,0.374,0.002,0.561,0.003
		C18.562,20.065,18.495,21.767,17.428,22.93z"/>
	<path fill-rule="evenodd" clip-rule="evenodd" fill="#A5A5A5" d="M21.701,21.829c-0.124-0.252,0.127-0.597-0.196-0.802
		c-0.036-0.094-0.071-0.188-0.107-0.283c1.229-0.221,2.459-0.219,3.688-0.001c-0.043,0.226-0.086,0.452-0.129,0.678
		c-0.053,0.14-0.105,0.279-0.158,0.419C24.103,22.325,22.461,22.319,21.701,21.829z"/>
	<path fill-rule="evenodd" clip-rule="evenodd" fill="#AFAFAF" d="M21.701,21.829c0.051-0.17,0.102-0.341,0.202-0.678
		c0.03,0.605,0.335,0.694,0.727,0.688c0.723-0.011,1.445-0.001,2.168,0c-0.001,0.052-0.002,0.104-0.002,0.155
		c-0.146,0.373,0.065,0.786-0.131,1.154c-0.845,0.45-1.731,0.25-2.606,0.153c-0.189-0.021-0.241-0.249-0.364-0.374
		C21.696,22.562,21.699,22.196,21.701,21.829z"/>
	<path fill-rule="evenodd" clip-rule="evenodd" fill="#D9D9D9" d="M24.672,23.064c0.029-0.358-0.052-0.729,0.124-1.069
		c-0.002,0.906-0.004,1.812-0.005,2.719c-0.034,0.001-0.069,0.003-0.104,0.005c-0.079-0.044-0.138-0.106-0.179-0.187
		C24.332,24.017,24.227,23.51,24.672,23.064z"/>
	<path fill-rule="evenodd" clip-rule="evenodd" fill="#D9D9D9" d="M21.696,27.175c0-0.502,0-1.005,0-1.508
		c0.178-0.212,0.405-0.151,0.629-0.118c0.519,0.076,1.041,0.038,1.562,0.062c0.301,0.014,0.587,0.061,0.786,0.324
		c-0.001,0.5-0.002,1-0.003,1.5c-0.693,0.547-2.304,0.474-2.861-0.131C21.771,27.261,21.733,27.218,21.696,27.175z"/>
	<path fill-rule="evenodd" clip-rule="evenodd" fill="#CACACA" d="M24.673,25.935c-0.994-0.072-2.02,0.21-2.977-0.268
		c-0.001-0.458-0.001-0.915-0.002-1.373c0.07-0.166,0.206-0.274,0.372-0.22c0.639,0.211,1.3,0.134,1.951,0.178
		c0.26,0.017,0.484,0.1,0.648,0.312c0.007,0.052,0.015,0.104,0.021,0.155C24.683,25.124,24.678,25.529,24.673,25.935z"/>
	<path fill-rule="evenodd" clip-rule="evenodd" fill="#E7E7E7" d="M21.809,27.304c0.944,0.25,1.907,0.097,2.861,0.131
		c0.002,0.045,0.004,0.09,0.004,0.136c0.014,1.276,0.015,1.27-1.21,1.125c-0.266-0.031-0.553-0.044-0.808,0.019
		c-0.662,0.166-0.879-0.123-0.849-0.733C21.818,27.756,21.809,27.53,21.809,27.304z"/>
	<path fill-rule="evenodd" clip-rule="evenodd" fill="#BEBEBE" d="M24.666,24.563c-0.54,0.002-1.084-0.028-1.62,0.017
		c-0.491,0.041-0.912-0.139-1.352-0.286c0-0.455,0-0.91,0-1.365c0.984,0.237,1.984,0.108,2.978,0.135
		C24.67,23.564,24.668,24.064,24.666,24.563z"/>
</g>
</svg>
